<?xml version="1.0" standalone="no"?>
<!DOCTYPE svg PUBLIC "-//W3C//DTD SVG 20010904//EN"
 "http://www.w3.org/TR/2001/REC-SVG-20010904/DTD/svg10.dtd">
<svg version="1.0" xmlns="http://www.w3.org/2000/svg"
 width="225.000000pt" height="225.000000pt" viewBox="0 0 225.000000 225.000000"
 preserveAspectRatio="xMidYMid meet">

<g transform="translate(0.000000,225.000000) scale(0.100000,-0.100000)"
fill="#000000" stroke="none">
<path d="M1010 2119 c-87 -12 -165 -46 -219 -95 -84 -76 -115 -166 -129 -385
-8 -111 -14 -146 -34 -190 -25 -54 -76 -116 -113 -137 -20 -11 -19 -11 5 -28
14 -9 59 -51 100 -93 108 -108 111 -111 175 -121 89 -14 111 21 59 91 -44 59
-66 110 -80 188 -24 136 -16 240 26 354 29 76 42 79 174 33 59 -20 123 -36
148 -36 24 0 88 16 142 35 55 19 107 35 116 35 50 0 92 -119 93 -270 2 -158
-16 -238 -70 -317 -39 -57 -43 -69 -34 -89 9 -20 18 -24 55 -24 68 0 89 13
184 108 48 49 98 97 112 106 24 17 25 17 5 28 -36 21 -87 82 -113 137 -21 45
-26 77 -33 189 -13 215 -45 310 -130 386 -95 86 -261 122 -439 95z"/>
<path d="M690 1003 c-67 -32 -64 -29 -55 -43 5 -8 12 -6 25 5 11 10 24 14 31
9 7 -4 10 -3 6 3 -4 6 14 20 41 31 26 12 38 21 27 21 -11 0 -45 -12 -75 -26z"/>
<path d="M560 926 c-119 -88 -225 -248 -265 -402 -25 -95 -20 -153 14 -195 48
-58 203 -122 347 -143 32 -4 43 -2 48 9 3 8 13 15 23 15 28 1 102 38 78 39
-21 1 -48 44 -59 94 -4 15 -11 27 -16 27 -6 0 -10 27 -10 60 0 33 -4 60 -10
60 -5 0 -10 18 -10 40 0 22 -5 40 -11 40 -6 0 -10 30 -8 85 1 56 -2 90 -11
100 -17 20 -27 19 -33 -5 -3 -11 -13 -20 -22 -20 -9 0 -13 -4 -10 -10 3 -5 2
-10 -4 -10 -6 0 -35 -25 -66 -56 -30 -31 -55 -53 -55 -49 0 4 -7 2 -15 -5 -8
-7 -12 -16 -9 -21 3 -5 0 -9 -5 -9 -6 0 -11 -7 -11 -15 0 -9 -7 -18 -15 -21
-8 -3 -17 -15 -21 -27 -7 -21 -7 -21 -16 2 -4 13 -11 21 -14 18 -3 -3 0 -15 6
-27 12 -23 5 -96 -12 -117 -16 -20 -31 -15 -25 8 4 13 1 19 -6 16 -20 -7 -11
84 14 155 57 161 114 249 216 332 34 28 62 54 62 59 2 16 -26 5 -69 -27z"/>
<path d="M1108 873 c12 -2 32 -2 45 0 12 2 2 4 -23 4 -25 0 -35 -2 -22 -4z"/>
</g>
</svg>
