<?xml version="1.0" standalone="no"?>
<!DOCTYPE svg PUBLIC "-//W3C//DTD SVG 20010904//EN"
 "http://www.w3.org/TR/2001/REC-SVG-20010904/DTD/svg10.dtd">
<svg version="1.0" xmlns="http://www.w3.org/2000/svg"
 width="626.000000pt" height="626.000000pt" viewBox="0 0 626.000000 626.000000"
 preserveAspectRatio="xMidYMid meet">

<g transform="translate(0.000000,626.000000) scale(0.100000,-0.100000)"
fill="#000000" stroke="none">
<path d="M2955 5770 c-114 -24 -241 -99 -340 -199 -48 -49 -66 -61 -91 -61
-55 0 -158 -38 -216 -80 -100 -71 -137 -194 -124 -415 12 -210 23 -264 73
-382 34 -79 36 -82 64 -76 15 3 57 0 92 -7 76 -14 103 -4 167 60 53 53 82 114
118 249 17 62 33 115 36 118 2 3 39 -19 81 -47 111 -75 231 -130 312 -142 121
-19 151 5 93 72 -16 19 -29 38 -30 41 0 4 26 -2 58 -13 159 -52 416 -82 521
-59 30 6 55 10 57 8 2 -1 -6 -61 -16 -132 -11 -71 -18 -131 -16 -133 13 -12
69 150 81 230 7 44 16 57 104 145 71 73 106 118 136 175 l40 76 -18 37 c-25
52 -112 141 -161 165 -26 12 -62 20 -95 20 l-53 0 56 62 c30 34 63 77 73 96
24 45 10 53 -91 51 l-80 -2 -14 42 c-17 51 -28 56 -92 44 -42 -9 -53 -7 -77 9
-53 36 -68 38 -143 17 l-72 -21 -82 27 c-64 21 -105 28 -196 31 -63 2 -133 -1
-155 -6z"/>
<path d="M3442 4633 c4 -20 65 -30 191 -32 60 -1 68 1 65 17 -4 21 -57 30
-176 31 -74 1 -83 -1 -80 -16z"/>
<path d="M2935 4630 c-72 -10 -95 -19 -95 -36 0 -12 13 -14 78 -9 171 13 182
15 182 36 0 17 -7 19 -57 18 -32 -1 -81 -5 -108 -9z"/>
<path d="M3517 4442 c-29 -31 -31 -74 -7 -105 21 -27 61 -36 86 -19 17 11 34
48 34 74 0 56 -77 90 -113 50z"/>
<path d="M2949 4429 c-47 -47 3 -143 63 -120 28 10 51 60 41 89 -19 53 -67 68
-104 31z"/>
<path d="M3760 3150 c-9 -6 1 -29 38 -91 88 -145 132 -320 132 -525 0 -71 -15
-232 -40 -436 -22 -178 -40 -328 -40 -334 0 -10 40 -28 47 -21 1 2 20 148 42
326 68 538 52 741 -74 978 -53 100 -75 122 -105 103z"/>
<path d="M2328 3118 c-157 -240 -190 -586 -102 -1065 5 -26 2 -32 -17 -38 -42
-14 -97 -56 -122 -94 -38 -57 -48 -105 -40 -198 5 -73 8 -83 25 -83 14 0 18 5
14 18 -4 10 -7 54 -8 98 -1 62 3 87 19 119 44 85 107 119 218 120 72 0 84 -3
123 -29 54 -37 76 -73 103 -171 25 -94 26 -96 43 -89 11 4 8 23 -11 91 -30
108 -43 132 -89 173 -50 43 -93 60 -154 60 -27 0 -50 4 -50 10 0 5 -12 85 -26
177 -22 147 -25 190 -21 343 6 227 39 357 126 501 21 35 37 67 34 72 -9 16
-51 6 -65 -15z"/>
<path d="M2907 2960 c-42 -76 -77 -144 -77 -149 0 -5 13 -39 29 -75 l30 -65
-20 -203 c-10 -112 -28 -309 -40 -438 l-22 -235 41 -130 c122 -391 180 -566
184 -554 3 8 28 77 56 154 149 412 191 536 187 547 -3 7 -40 204 -84 436 l-79
424 31 70 31 70 -73 144 c-96 189 -92 189 -194 4z"/>
</g>
</svg>
