<?xml version="1.0" standalone="no"?>
<!DOCTYPE svg PUBLIC "-//W3C//DTD SVG 20010904//EN"
 "http://www.w3.org/TR/2001/REC-SVG-20010904/DTD/svg10.dtd">
<svg version="1.0" xmlns="http://www.w3.org/2000/svg"
 width="640.000000pt" height="640.000000pt" viewBox="0 0 640.000000 640.000000"
 preserveAspectRatio="xMidYMid meet">

<g transform="translate(0.000000,640.000000) scale(0.100000,-0.100000)"
fill="#03c2fc" stroke="none">
<path d="M3050 4984 c-36 -7 -108 -34 -160 -60 -80 -39 -109 -61 -180 -133
-140 -141 -203 -292 -203 -486 0 -194 63 -345 203 -486 71 -72 100 -94 180
-133 123 -60 214 -79 345 -73 368 18 655 318 657 687 1 196 -63 351 -202 491
-71 72 -100 94 -180 133 -150 73 -306 94 -460 60z m268 -80 c76 -15 222 -77
222 -93 0 -8 -932 -571 -944 -571 -12 0 -5 148 9 208 54 227 245 411 474 457
90 18 148 18 239 -1z m426 -324 c153 -306 27 -679 -279 -825 -96 -45 -164 -60
-275 -59 -233 3 -449 142 -542 350 -48 107 -93 68 467 404 l500 299 47 -49
c25 -27 62 -81 82 -120z"/>
<path d="M2781 3345 c-373 -83 -649 -351 -744 -722 -21 -84 -22 -106 -22 -534
l0 -446 35 -69 c25 -49 49 -79 85 -106 94 -72 45 -69 1086 -66 l934 3 50 25
c66 32 121 90 154 159 l26 56 3 370 c4 389 -4 533 -37 645 -44 155 -115 280
-225 397 -127 135 -257 215 -433 270 l-88 27 -380 3 c-298 2 -394 -1 -444 -12z
m559 -70 c0 -2 -155 -222 -343 -487 l-344 -483 -276 -3 -277 -2 0 99 c0 343
181 638 485 790 69 34 183 70 265 84 36 6 490 8 490 2z m698 -244 c127 -126
216 -290 248 -459 11 -56 14 -173 14 -495 0 -406 -1 -422 -21 -464 -45 -93
-131 -133 -286 -133 l-93 0 0 517 c0 466 -2 518 -17 535 -20 22 -31 23 -55 1
-17 -15 -18 -45 -18 -535 l0 -518 -748 0 c-824 0 -817 0 -886 61 -54 47 -76
102 -76 192 l0 77 723 0 c549 0 726 3 735 12 18 18 17 451 -1 466 -7 6 -57 13
-111 14 l-97 3 298 398 c164 218 303 397 309 397 7 0 43 -31 82 -69z m-1455
-823 c-4 -7 -56 -82 -115 -165 l-109 -153 -129 0 -130 0 0 165 0 165 246 0
c193 0 244 -3 237 -12z m905 -151 c2 -122 0 -159 -10 -162 -8 -3 -109 -4 -226
-3 l-213 3 122 163 122 163 101 -3 101 -3 3 -158z"/>
</g>
</svg>
